<svg width="152" height="129" viewBox="0 0 152 129" fill="none" xmlns="http://www.w3.org/2000/svg">
<mask id="mask0" mask-type="alpha" maskUnits="userSpaceOnUse" x="0" y="0" width="152" height="129">
<rect width="152" height="129" fill="#C4C4C4"/>
</mask>
<g mask="url(#mask0)">
<path d="M34.3497 97.0174C38.0567 98.7363 42.0961 99.6294 46.2522 99.6304C51.1867 99.6308 56.0646 98.3203 60.3599 95.8403C68.3779 91.2111 73.5469 82.9367 74.3769 73.8945C83.4666 73.0641 91.7168 67.8518 96.3217 59.8761C100.95 51.86 101.291 42.1127 97.4907 33.8682C103.308 29.7814 107.363 23.6636 108.852 16.7064C128.651 17.3417 146.829 24.4932 161.321 36.0748C157.524 39.7556 155.276 44.8696 155.276 50.3857C155.276 57.4455 158.967 63.6553 164.517 67.2004C167.612 69.1771 171.282 70.3286 175.219 70.3286C177.993 70.3286 180.698 69.7535 183.187 68.6676C183.199 68.6804 183.211 68.6928 183.224 68.7056C184.155 71.2882 184.968 73.9273 185.662 76.6139C187.512 83.771 188.503 91.2714 188.503 99.0003C188.503 148.353 148.352 188.504 98.9997 188.504C79.4785 188.504 61.4027 182.216 46.6772 171.567C46.3667 171.288 45.9683 170.995 45.5058 170.692C39.9907 166.567 34.9565 161.833 30.5254 156.571C35.6593 152.896 38.9109 146.883 38.9109 140.335C38.9109 135.99 37.5101 131.969 35.1422 128.689C31.6574 123.863 26.0705 120.657 19.7344 120.415C19.4861 120.401 19.2325 120.392 18.9675 120.392C18.7757 120.392 18.5843 120.398 18.393 120.404C17.7259 116.475 17.3142 112.46 17.1831 108.375C24.1418 106.889 30.2609 102.834 34.3497 97.0174ZM135.115 159.007C141.332 159.007 146.893 156.146 150.553 151.673C153.504 148.195 155.29 143.698 155.29 138.791C155.29 127.794 146.344 118.848 135.347 118.848C129.13 118.848 123.569 121.709 119.909 126.181C116.958 129.66 115.172 134.156 115.172 139.064C115.172 150.061 124.118 159.007 135.115 159.007ZM121.935 87.2207C128.151 87.2207 133.712 84.3598 137.372 79.8869C140.323 76.4088 142.109 71.9121 142.109 67.0043C142.109 56.0077 133.163 47.0614 122.166 47.0614C115.949 47.0614 110.389 49.9222 106.729 54.3951C103.777 57.8733 101.992 62.3699 101.992 67.2778C101.992 78.2739 110.937 87.2207 121.935 87.2207ZM80.734 149.493C88.7178 149.493 95.8597 145.824 100.566 140.084C104.331 135.621 106.607 129.861 106.607 123.578C106.607 109.44 95.1038 97.9376 80.9657 97.9376C72.9819 97.9376 65.84 101.607 61.1334 107.346C57.3685 111.81 55.0931 117.569 55.0931 123.852C55.0931 137.991 66.5959 149.493 80.734 149.493Z" fill="#D4B783"/>
<path d="M122.167 77.45C116.406 77.45 111.72 72.7639 111.72 67.0038C111.72 61.2436 116.406 56.5575 122.167 56.5575C127.927 56.5575 132.613 61.2436 132.613 67.0038C132.613 72.7639 127.926 77.45 122.167 77.45Z" fill="#89634A"/>
<path d="M135.347 149.237C129.587 149.237 124.9 144.551 124.9 138.791C124.9 133.03 129.587 128.344 135.347 128.344C141.107 128.344 145.793 133.03 145.793 138.791C145.793 144.551 141.107 149.237 135.347 149.237Z" fill="#89634A"/>
<path d="M80.9656 139.723C72.0635 139.723 64.8214 132.481 64.8214 123.579C64.8214 114.677 72.0635 107.435 80.9656 107.435C89.8677 107.435 97.1099 114.677 97.1099 123.579C97.1099 132.481 89.8677 139.723 80.9656 139.723Z" fill="#89634A"/>
<path d="M106.728 54.3948C103.915 57.8335 102.223 62.2243 102.223 67.0039C102.223 78.0005 111.169 86.9468 122.166 86.9468C128.254 86.9468 133.711 84.2013 137.372 79.8865C133.712 84.3594 128.151 87.2203 121.934 87.2203C110.938 87.2203 101.991 78.274 101.991 67.2774C101.991 62.3696 103.777 57.8729 106.728 54.3948Z" fill="#89634A"/>
<path d="M115.403 138.791C115.403 149.787 124.35 158.734 135.346 158.734C141.435 158.734 146.891 155.988 150.552 151.673C146.892 156.146 141.332 159.007 135.115 159.007C124.118 159.007 115.172 150.061 115.172 139.064C115.172 134.156 116.958 129.66 119.909 126.182C117.095 129.62 115.403 134.011 115.403 138.791Z" fill="#89634A"/>
<path d="M55.3245 123.579C55.3245 137.718 66.8273 149.22 80.9654 149.22C88.8205 149.22 95.8584 145.666 100.566 140.085C95.8599 145.824 88.7179 149.494 80.7337 149.494C66.5956 149.494 55.0928 137.992 55.0928 123.853C55.0928 117.57 57.3682 111.811 61.1331 107.347C57.5054 111.771 55.3245 117.424 55.3245 123.579Z" fill="#89634A"/>
<path d="M122.166 86.9467C111.169 86.9467 102.223 78.0004 102.223 67.0038C102.223 62.2241 103.914 57.8334 106.728 54.3947C110.388 49.9218 115.949 47.0609 122.166 47.0609C133.163 47.0609 142.109 56.0072 142.109 67.0038C142.109 71.9121 140.323 76.4083 137.372 79.8864C133.711 84.2012 128.254 86.9467 122.166 86.9467ZM122.166 56.5575C116.406 56.5575 111.72 61.2436 111.72 67.0038C111.72 72.764 116.406 77.4501 122.166 77.4501C127.926 77.4501 132.612 72.764 132.612 67.0038C132.612 61.2436 127.926 56.5575 122.166 56.5575Z" fill="black"/>
<path d="M135.346 158.733C124.35 158.733 115.403 149.787 115.403 138.791C115.403 134.011 117.095 129.62 119.908 126.181C123.568 121.709 129.129 118.848 135.346 118.848C146.343 118.848 155.289 127.794 155.289 138.791C155.289 143.699 153.503 148.195 150.552 151.673C146.891 155.988 141.435 158.733 135.346 158.733ZM135.346 128.344C129.586 128.344 124.9 133.03 124.9 138.791C124.9 144.551 129.586 149.237 135.346 149.237C141.106 149.237 145.792 144.551 145.792 138.791C145.792 133.03 141.106 128.344 135.346 128.344Z" fill="black"/>
<path d="M0.00987503 98.0981L0.0160481 97.7035C0.0464372 95.1969 2.02078 93.1461 4.52408 93.0198C11.5872 92.6632 17.8227 88.4429 20.7965 82.007C21.3877 80.7278 22.5168 79.7772 23.8777 79.4121C25.239 79.0469 26.692 79.3057 27.844 80.1182C31.0282 82.3641 34.9318 83.601 38.8344 83.6015C42.1411 83.6015 45.4141 82.7212 48.3002 81.055C54.6904 77.3656 58.3865 70.2274 57.716 62.8695C57.5883 61.4659 58.0907 60.0779 59.0873 59.0817C60.0845 58.0846 61.4772 57.5841 62.8751 57.71C63.4425 57.7617 64.0199 57.7878 64.5911 57.7878C71.3679 57.7878 77.6784 54.1497 81.0597 48.2931C84.7491 41.9028 84.3806 33.873 80.1214 27.8355C79.309 26.6841 79.0497 25.2311 79.4148 23.8697C79.7795 22.5084 80.7301 21.3792 82.0093 20.7881C88.4423 17.8147 92.6617 11.5825 93.0202 4.52324C93.1474 2.02135 95.1963 0.0484327 97.701 0.0161442L98.0885 0.00997144C98.3915 0.00474831 98.6953 0 98.9997 0C153.589 0 198 44.4114 198 99.0003C198 153.589 153.589 198.001 98.9997 198.001C44.4108 198.001 -9.45538e-05 153.589 -9.45538e-05 99.0003C-9.45538e-05 98.6988 0.0046519 98.3987 0.00987503 98.0981ZM168.364 42.5045C166.12 44.4522 164.773 47.2969 164.773 50.3847C164.773 56.1449 169.459 60.831 175.219 60.831C176.712 60.831 178.164 60.5039 179.498 59.9032C176.455 53.6653 172.711 47.8311 168.364 42.5045ZM24.797 148.993C27.6151 147.086 29.4142 143.859 29.4142 140.335C29.4142 134.575 24.7281 129.888 18.968 129.888C17.674 129.888 16.4248 130.126 15.2524 130.574C17.7249 137.111 20.9395 143.285 24.797 148.993ZM12.3659 121.521C14.2971 120.843 16.3327 120.464 18.3939 120.404C18.5853 120.398 18.7766 120.391 18.9684 120.391C19.2258 120.391 19.4798 120.405 19.7353 120.415C26.0714 120.656 31.6583 123.862 35.1431 128.689C37.511 131.968 38.9118 135.99 38.9118 140.334C38.9118 146.883 35.6602 152.895 30.5263 156.57C34.9574 161.832 39.992 166.566 45.5067 170.692C45.897 170.984 46.2831 171.28 46.6781 171.566C61.4036 182.216 79.4794 188.503 99.0007 188.503C148.352 188.503 188.503 148.353 188.503 99.0003C188.503 91.2719 187.513 83.771 185.662 76.613C184.968 73.9268 184.155 71.2877 183.224 68.7047C183.218 68.6895 183.213 68.6738 183.208 68.6581C183.201 68.661 183.194 68.6633 183.187 68.6667C180.698 69.7526 177.993 70.3276 175.219 70.3276C171.282 70.3276 167.612 69.1762 164.517 67.1994C158.967 63.6544 155.276 57.4445 155.276 50.3847C155.276 44.8686 157.524 39.7547 161.321 36.0738C161.535 35.8663 161.751 35.6612 161.975 35.4632C146.433 20.0568 125.29 10.2929 101.908 9.54267C100.409 16.5526 96.3221 22.7173 90.4613 26.835C94.2903 35.1422 93.947 44.9636 89.2837 53.0409C84.6442 61.0775 76.3313 66.3291 67.1723 67.1662C66.3361 76.2773 61.1282 84.6148 53.0489 89.2791C48.7213 91.7776 43.8059 93.0981 38.8344 93.0977C34.6464 93.0972 30.5761 92.1969 26.8411 90.4652C22.7215 96.326 16.5558 100.411 9.54447 101.91C9.76004 108.66 10.7278 115.225 12.3659 121.521Z" fill="black"/>
<path d="M80.9656 149.22C66.8275 149.22 55.3247 137.718 55.3247 123.579C55.3247 117.425 57.5056 111.771 61.1333 107.347C65.8394 101.608 72.9813 97.9381 80.9656 97.9381C95.1037 97.9381 106.606 109.44 106.606 123.579C106.606 129.862 104.331 135.621 100.566 140.085C95.8587 145.666 88.8207 149.22 80.9656 149.22ZM80.9656 107.435C72.0635 107.435 64.8214 114.677 64.8214 123.579C64.8214 132.481 72.0635 139.723 80.9656 139.723C89.8677 139.723 97.1098 132.481 97.1098 123.579C97.1098 114.677 89.8677 107.435 80.9656 107.435Z" fill="black"/>
</g>
</svg>
