<svg width="162" height="48" viewBox="0 0 162 48" fill="none" xmlns="http://www.w3.org/2000/svg">
<path d="M156 48H6C2.64 48 0 45.36 0 42V6C0 2.64 2.64 0 6 0H156C159.36 0 162 2.64 162 6V42C162 45.24 159.36 48 156 48Z" fill="black"/>
<path d="M156 0.96C158.76 0.96 161.04 3.24 161.04 6V42C161.04 44.76 158.76 47.04 156 47.04H6C3.24 47.04 0.96 44.76 0.96 42V6C0.96 3.24 3.24 0.96 6 0.96H156ZM156 0H6C2.64 0 0 2.64 0 6V42C0 45.36 2.64 48 6 48H156C159.36 48 162 45.36 162 42V6C162 2.76 159.36 0 156 0Z" fill="#A6A6A6"/>
<path d="M81.72 26.1603C78.84 26.1603 76.56 28.3203 76.56 31.3203C76.56 34.2003 78.84 36.4803 81.72 36.4803C84.6 36.4803 86.88 34.3203 86.88 31.3203C86.88 28.2003 84.6 26.1603 81.72 26.1603ZM81.72 34.3203C80.16 34.3203 78.84 33.0003 78.84 31.2003C78.84 29.4003 80.16 28.0803 81.72 28.0803C83.28 28.0803 84.6 29.2803 84.6 31.2003C84.6 33.0003 83.28 34.3203 81.72 34.3203ZM70.56 26.1603C67.68 26.1603 65.4 28.3203 65.4 31.3203C65.4 34.2003 67.68 36.4803 70.56 36.4803C73.44 36.4803 75.72 34.3203 75.72 31.3203C75.72 28.2003 73.44 26.1603 70.56 26.1603ZM70.56 34.3203C69 34.3203 67.68 33.0003 67.68 31.2003C67.68 29.4003 69 28.0803 70.56 28.0803C72.12 28.0803 73.44 29.2803 73.44 31.2003C73.44 33.0003 72.12 34.3203 70.56 34.3203ZM57.24 27.7203V29.8803H62.4C62.28 31.0803 61.8 32.0403 61.2 32.6403C60.48 33.3603 59.28 34.2003 57.24 34.2003C54 34.2003 51.6 31.6803 51.6 28.4403C51.6 25.2003 54.12 22.6803 57.24 22.6803C58.92 22.6803 60.24 23.4003 61.2 24.2403L62.76 22.6803C61.44 21.4803 59.76 20.5203 57.36 20.5203C53.04 20.5203 49.32 24.1203 49.32 28.4403C49.32 32.7603 53.04 36.3603 57.36 36.3603C59.76 36.3603 61.44 35.6403 62.88 34.0803C64.32 32.6403 64.8 30.6003 64.8 29.0403C64.8 28.5603 64.8 28.0803 64.68 27.7203H57.24ZM111.72 29.4003C111.24 28.2003 110.04 26.1603 107.4 26.1603C104.76 26.1603 102.6 28.2003 102.6 31.3203C102.6 34.2003 104.76 36.4803 107.64 36.4803C109.92 36.4803 111.36 35.0403 111.84 34.2003L110.16 33.0003C109.56 33.8403 108.84 34.4403 107.64 34.4403C106.44 34.4403 105.72 33.9603 105.12 32.8803L111.96 30.0003L111.72 29.4003ZM104.76 31.0803C104.76 29.1603 106.32 28.0803 107.4 28.0803C108.24 28.0803 109.08 28.5603 109.32 29.1603L104.76 31.0803ZM99.12 36.0003H101.4V21.0003H99.12V36.0003ZM95.52 27.2403C94.92 26.6403 93.96 26.0403 92.76 26.0403C90.24 26.0403 87.84 28.3203 87.84 31.2003C87.84 34.0803 90.12 36.2403 92.76 36.2403C93.96 36.2403 94.92 35.6403 95.4 35.0403H95.52V35.7603C95.52 37.6803 94.44 38.7603 92.76 38.7603C91.44 38.7603 90.48 37.8003 90.24 36.9603L88.32 37.8003C88.92 39.1203 90.36 40.8003 92.88 40.8003C95.52 40.8003 97.68 39.2403 97.68 35.5203V26.4003H95.52V27.2403ZM92.88 34.3203C91.32 34.3203 90 33.0003 90 31.2003C90 29.4003 91.32 28.0803 92.88 28.0803C94.44 28.0803 95.64 29.4003 95.64 31.2003C95.64 33.0003 94.44 34.3203 92.88 34.3203ZM122.16 21.0003H116.76V36.0003H119.04V30.3603H122.16C124.68 30.3603 127.08 28.5603 127.08 25.6803C127.08 22.8003 124.68 21.0003 122.16 21.0003ZM122.28 28.2003H119.04V23.0403H122.28C123.96 23.0403 124.92 24.4803 124.92 25.5603C124.8 26.8803 123.84 28.2003 122.28 28.2003ZM136.08 26.0403C134.4 26.0403 132.72 26.7603 132.12 28.3203L134.16 29.1603C134.64 28.3203 135.36 28.0803 136.2 28.0803C137.4 28.0803 138.48 28.8003 138.6 30.0003V30.1203C138.24 29.8803 137.28 29.5203 136.32 29.5203C134.16 29.5203 132 30.7203 132 32.8803C132 34.9203 133.8 36.2403 135.72 36.2403C137.28 36.2403 138 35.5203 138.6 34.8003H138.72V36.0003H140.88V30.2403C140.64 27.6003 138.6 26.0403 136.08 26.0403ZM135.84 34.3203C135.12 34.3203 134.04 33.9603 134.04 33.0003C134.04 31.8003 135.36 31.4403 136.44 31.4403C137.4 31.4403 137.88 31.6803 138.48 31.9203C138.24 33.3603 137.04 34.3203 135.84 34.3203ZM148.44 26.4003L145.92 32.8803H145.8L143.16 26.4003H140.76L144.72 35.5203L142.44 40.5603H144.72L150.84 26.4003H148.44ZM128.28 36.0003H130.56V21.0003H128.28V36.0003Z" fill="white"/>
<path d="M12.48 9.00024C12.12 9.36024 11.88 9.96024 11.88 10.6802V37.2002C11.88 37.9202 12.12 38.5202 12.48 38.8802L12.6 39.0002L27.48 24.1202V24.0002V23.8802L12.48 9.00024Z" fill="url(#paint0_linear)"/>
<path d="M32.4 29.1597L27.48 24.2397V23.9997V23.8797L32.4 18.9597L32.52 19.0797L38.4 22.4397C40.08 23.3997 40.08 24.9597 38.4 25.9197L32.4 29.1597Z" fill="url(#paint1_linear)"/>
<path d="M32.52 29.0402L27.48 24.0002L12.48 39.0002C13.08 39.6002 13.92 39.6002 15 39.1202L32.52 29.0402Z" fill="url(#paint2_linear)"/>
<path d="M32.52 18.9599L15 8.99994C13.92 8.39994 13.08 8.51994 12.48 9.11994L27.48 23.9999L32.52 18.9599Z" fill="url(#paint3_linear)"/>
<path opacity="0.2" d="M32.4 28.9199L15 38.7599C14.04 39.3599 13.2 39.2399 12.6 38.7599L12.48 38.8799L12.6 38.9999C13.2 39.4799 14.04 39.5999 15 38.9999L32.4 28.9199Z" fill="black"/>
<path opacity="0.12" d="M12.48 38.7598C12.12 38.3998 12 37.7998 12 37.0798V37.1998C12 37.9198 12.24 38.5198 12.6 38.8798V38.7598H12.48Z" fill="black"/>
<path opacity="0.12" d="M38.4 25.5602L32.4 28.9202L32.52 29.0402L38.4 25.6802C39.24 25.2002 39.6 24.6002 39.6 24.0002C39.6 24.6002 39.12 25.0802 38.4 25.5602Z" fill="black"/>
<path opacity="0.25" d="M15 9.11995L38.4 22.44C39.12 22.92 39.6 23.4 39.6 24C39.6 23.4 39.24 22.8 38.4 22.32L15 8.99995C13.32 8.03995 12 8.87995 12 10.8V10.92C12 8.99995 13.32 8.15995 15 9.11995Z" fill="white"/>
<path d="M49.44 15.5999V8.3999H50.4V14.7599H53.52V15.5999H49.44Z" fill="white" stroke="white" stroke-width="0.2" stroke-miterlimit="10"/>
<path d="M54.12 15.5999L56.88 8.3999H57.96L60.72 15.5999H59.64L58.8 13.6799H55.8L55.08 15.5999H54.12ZM56.16 12.8399H58.56L57.36 9.5999L56.16 12.8399Z" fill="white" stroke="white" stroke-width="0.2" stroke-miterlimit="10"/>
<path d="M61.56 15.5999V8.3999H63.72C64.8 8.3999 65.76 8.7599 66.36 9.3599C67.08 10.0799 67.32 10.9199 67.32 11.9999C67.32 13.0799 66.96 13.9199 66.36 14.6399C65.64 15.3599 64.8 15.5999 63.72 15.5999H61.56ZM62.52 14.7599H63.84C64.68 14.7599 65.28 14.5199 65.76 14.0399C66.24 13.5599 66.48 12.8399 66.48 11.9999C66.48 11.1599 66.24 10.4399 65.76 9.9599C65.28 9.4799 64.56 9.2399 63.84 9.2399H62.52V14.7599Z" fill="white" stroke="white" stroke-width="0.2" stroke-miterlimit="10"/>
<path d="M68.76 15.5999V8.3999H70.92C72 8.3999 72.96 8.7599 73.56 9.3599C74.28 10.0799 74.52 10.9199 74.52 11.9999C74.52 13.0799 74.16 13.9199 73.56 14.6399C72.96 15.2399 72 15.5999 70.92 15.5999H68.76ZM69.72 14.7599H71.04C71.88 14.7599 72.48 14.5199 72.96 14.0399C73.44 13.5599 73.68 12.8399 73.68 11.9999C73.68 11.1599 73.44 10.4399 72.96 9.9599C72.48 9.4799 71.76 9.2399 71.04 9.2399H69.72V14.7599Z" fill="white" stroke="white" stroke-width="0.2" stroke-miterlimit="10"/>
<path d="M75 15.5999L77.76 8.3999H78.84L81.6 15.5999H80.4L79.68 13.6799H76.68L75.96 15.5999H75ZM77.04 12.8399H79.44L78.24 9.5999L77.04 12.8399Z" fill="white" stroke="white" stroke-width="0.2" stroke-miterlimit="10"/>
<path d="M84.96 15.5999V8.3999H86.04L89.52 14.0399V12.5999V8.3999H90.48V15.5999H89.52L85.8 9.7199V11.1599V15.5999H84.96Z" fill="white" stroke="white" stroke-width="0.2" stroke-miterlimit="10"/>
<path d="M96.36 9.2399H93.12V11.5199H96V12.3599H93V14.6399H96.24V15.5999H92.04V8.3999H96.24V9.2399H96.36Z" fill="white" stroke="white" stroke-width="0.2" stroke-miterlimit="10"/>
<path d="M97.8 15.5999V8.3999H99.96C101.04 8.3999 102 8.7599 102.6 9.3599C103.32 10.0799 103.56 10.9199 103.56 11.9999C103.56 13.0799 103.2 13.9199 102.6 14.6399C102 15.2399 101.04 15.5999 99.96 15.5999H97.8ZM98.64 14.7599H99.96C100.8 14.7599 101.4 14.5199 101.88 14.0399C102.36 13.5599 102.6 12.8399 102.6 11.9999C102.6 11.1599 102.36 10.4399 101.88 9.9599C101.4 9.4799 100.68 9.2399 99.96 9.2399H98.64V14.7599Z" fill="white" stroke="white" stroke-width="0.2" stroke-miterlimit="10"/>
<path d="M108.24 15.5999H107.28V8.3999H109.68C110.28 8.3999 110.76 8.6399 111.24 8.9999C111.72 9.3599 111.96 9.9599 111.96 10.5599C111.96 11.1599 111.72 11.6399 111.24 12.1199C110.76 12.4799 110.28 12.7199 109.68 12.7199H108.12V15.5999H108.24ZM108.24 11.7599H109.8C110.16 11.7599 110.52 11.6399 110.76 11.3999C111 11.1599 111.12 10.7999 111.12 10.5599C111.12 10.1999 111 9.9599 110.76 9.7199C110.52 9.4799 110.16 9.3599 109.8 9.3599H108.24V11.7599Z" fill="white" stroke="white" stroke-width="0.2" stroke-miterlimit="10"/>
<path d="M111.84 15.5998L114.36 8.75984C114.12 8.51984 114 8.27984 114 7.91984C114 7.67984 114.12 7.31984 114.36 7.19984C114.6 6.95984 114.84 6.83984 115.08 6.83984C115.32 6.83984 115.56 6.95984 115.8 7.19984C116.04 7.43984 116.16 7.67984 116.16 7.91984C116.16 8.27984 116.04 8.51984 115.8 8.75984L118.32 15.5998H117.24L116.52 13.6798H113.52L112.8 15.5998H111.84ZM114 12.8398H116.4L115.2 9.59984L114 12.8398ZM115.08 8.39984C115.2 8.39984 115.32 8.39984 115.32 8.27984C115.44 8.15984 115.44 8.15984 115.44 8.03984C115.44 7.91984 115.44 7.79984 115.32 7.79984C115.2 7.67984 115.2 7.67984 115.08 7.67984C114.96 7.67984 114.84 7.67984 114.84 7.79984C114.72 7.91984 114.72 7.91984 114.72 8.03984C114.72 8.15984 114.72 8.27984 114.84 8.27984C114.96 8.39984 114.96 8.39984 115.08 8.39984Z" fill="white" stroke="white" stroke-width="0.2" stroke-miterlimit="10"/>
<defs>
<linearGradient id="paint0_linear" x1="26.1596" y1="10.4519" x2="6.02074" y2="30.5908" gradientUnits="userSpaceOnUse">
<stop stop-color="#00A0FF"/>
<stop offset="0.00657445" stop-color="#00A1FF"/>
<stop offset="0.2601" stop-color="#00BEFF"/>
<stop offset="0.5122" stop-color="#00D2FF"/>
<stop offset="0.7604" stop-color="#00DFFF"/>
<stop offset="1" stop-color="#00E3FF"/>
</linearGradient>
<linearGradient id="paint1_linear" x1="40.6013" y1="24.0014" x2="11.565" y2="24.0014" gradientUnits="userSpaceOnUse">
<stop stop-color="#FFE000"/>
<stop offset="0.4087" stop-color="#FFBD00"/>
<stop offset="0.7754" stop-color="#FFA500"/>
<stop offset="1" stop-color="#FF9C00"/>
</linearGradient>
<linearGradient id="paint2_linear" x1="29.7924" y1="26.7556" x2="2.48242" y2="54.0655" gradientUnits="userSpaceOnUse">
<stop stop-color="#FF3A44"/>
<stop offset="1" stop-color="#C31162"/>
</linearGradient>
<linearGradient id="paint3_linear" x1="8.75674" y1="0.211379" x2="20.9519" y2="12.4064" gradientUnits="userSpaceOnUse">
<stop stop-color="#32A071"/>
<stop offset="0.0685" stop-color="#2DA771"/>
<stop offset="0.4762" stop-color="#15CF74"/>
<stop offset="0.8009" stop-color="#06E775"/>
<stop offset="1" stop-color="#00F076"/>
</linearGradient>
</defs>
</svg>
