<svg width="144" height="48" viewBox="0 0 144 48" fill="none" xmlns="http://www.w3.org/2000/svg">
<g clip-path="url(#clip0)">
<path d="M132.162 -8.81406e-05H11.4416C11.0016 -8.81406e-05 10.5668 -8.81405e-05 10.1279 0.00231186C9.76056 0.00471186 9.39611 0.0116839 9.0252 0.0175519C8.21942 0.027034 7.41553 0.0979234 6.62052 0.229604C5.82663 0.364151 5.05761 0.617811 4.33946 0.982004C3.6222 1.34928 2.96681 1.82651 2.39708 2.3964C1.82436 2.96468 1.34696 3.62153 0.98322 4.3417C0.61848 5.06044 0.365569 5.83064 0.23322 6.62569C0.0996131 7.41973 0.0277181 8.22294 0.01818 9.02809C0.007044 9.39601 0.005868 9.76515 0 10.1331V37.8702C0.005868 38.2428 0.007044 38.6038 0.01818 38.9765C0.027721 39.7816 0.0996161 40.5848 0.23322 41.3788C0.365203 42.1743 0.61813 42.9449 0.98322 43.664C1.34679 44.3818 1.82426 45.036 2.39708 45.6011C2.96465 46.1735 3.62046 46.6511 4.33946 47.0156C5.0576 47.3807 5.82654 47.6359 6.62052 47.7725C7.41566 47.9031 8.21947 47.9741 9.0252 47.9847C9.39611 47.9928 9.76056 47.9975 10.1279 47.9975C10.5668 47.9999 11.0016 47.9999 11.4416 47.9999H132.162C132.593 47.9999 133.031 47.9999 133.463 47.9975C133.828 47.9975 134.203 47.9928 134.569 47.9847C135.373 47.9746 136.175 47.9037 136.969 47.7725C137.765 47.6349 138.537 47.3798 139.259 47.0156C139.977 46.6509 140.632 46.1733 141.199 45.6011C141.771 45.0338 142.249 44.3801 142.617 43.664C142.98 42.9444 143.23 42.1738 143.36 41.3788C143.494 40.5847 143.568 39.7817 143.583 38.9765C143.588 38.6038 143.588 38.2428 143.588 37.8702C143.597 37.4343 143.597 37.0007 143.597 36.5577V11.4433C143.597 11.0038 143.597 10.5679 143.588 10.1331C143.588 9.76515 143.588 9.39601 143.583 9.02804C143.568 8.22282 143.494 7.4198 143.36 6.62564C143.23 5.83105 142.979 5.06092 142.617 4.34166C141.876 2.89815 140.702 1.72314 139.259 0.981896C138.537 0.618593 137.765 0.365 136.969 0.229496C136.175 0.0972352 135.373 0.0263212 134.569 0.0173839C134.203 0.0115279 133.828 0.00449586 133.463 0.00215586C133.031 -0.000244141 132.593 -0.000244141 132.162 -0.000244141V-8.81406e-05Z" fill="#A6A6A6"/>
<path d="M10.1338 46.9498C9.76818 46.9498 9.41139 46.9451 9.04864 46.937C8.29718 46.9272 7.54748 46.8618 6.80568 46.7412C6.11398 46.6221 5.44392 46.4005 4.81759 46.0838C4.197 45.7696 3.63097 45.3577 3.14119 44.8638C2.64432 44.3758 2.23065 43.8097 1.91658 43.188C1.59904 42.5623 1.37929 41.8917 1.26498 41.1994C1.14152 40.4555 1.07473 39.7034 1.06518 38.9494C1.05757 38.6963 1.04761 37.8537 1.04761 37.8537V10.133C1.04761 10.133 1.05822 9.30332 1.06524 9.05956C1.07439 8.30678 1.14079 7.55579 1.26387 6.81308C1.3784 6.1189 1.59832 5.4463 1.91602 4.81856C2.22894 4.19734 2.64031 3.63084 3.13419 3.14102C3.62752 2.64655 4.19535 2.23253 4.817 1.91406C5.44189 1.59832 6.11069 1.37828 6.80098 1.26133C7.54522 1.13961 8.29753 1.0738 9.0516 1.06446L10.1344 1.0498H133.457L134.552 1.06504C135.3 1.07392 136.045 1.13914 136.782 1.26015C137.48 1.37857 138.156 1.60014 138.788 1.91757C140.033 2.55939 141.046 3.5748 141.686 4.82149C141.998 5.4449 142.215 6.11201 142.328 6.80019C142.452 7.54899 142.522 8.30589 142.536 9.06484C142.54 9.40468 142.54 9.76972 142.54 10.133C142.549 10.583 142.549 11.0113 142.549 11.4432V36.5576C142.549 36.9935 142.549 37.4189 142.54 37.8478C142.54 38.238 142.54 38.5955 142.535 38.9634C142.521 39.7089 142.453 40.4522 142.33 41.1876C142.218 41.8849 142 42.5608 141.682 43.1916C141.366 43.8065 140.954 44.3677 140.463 44.8545C139.973 45.351 139.406 45.7653 138.784 46.0815C138.154 46.4007 137.479 46.6231 136.782 46.7412C136.041 46.8624 135.291 46.9278 134.539 46.937C134.188 46.9451 133.82 46.9498 133.463 46.9498L132.162 46.9522L10.1338 46.9498Z" fill="black"/>
<path d="M29.7227 24.3605C29.7356 23.3589 30.0016 22.3769 30.496 21.5057C30.9905 20.6346 31.6972 19.9027 32.5505 19.3781C32.0084 18.6039 31.2933 17.9667 30.4619 17.5173C29.6305 17.0678 28.7058 16.8184 27.7611 16.7889C25.746 16.5773 23.7925 17.9947 22.7657 17.9947C21.7189 17.9947 20.1379 16.8099 18.4355 16.8449C17.3342 16.8805 16.261 17.2007 15.3204 17.7744C14.3797 18.348 13.6037 19.1556 13.068 20.1183C10.7472 24.1364 12.4783 30.0417 14.7014 33.2896C15.8137 34.88 17.1136 36.6566 18.8145 36.5936C20.479 36.5245 21.1007 35.5322 23.1098 35.5322C25.1003 35.5322 25.6836 36.5936 27.419 36.5535C29.2051 36.5245 30.3304 34.956 31.4036 33.3506C32.2028 32.2173 32.8178 30.9649 33.2257 29.6395C32.1881 29.2007 31.3026 28.4661 30.6796 27.5273C30.0567 26.5885 29.7239 25.4872 29.7227 24.3605Z" fill="white"/>
<path d="M26.4447 14.6529C27.4185 13.4838 27.8983 11.9812 27.7821 10.4641C26.2943 10.6204 24.92 11.3314 23.933 12.4556C23.4505 13.0048 23.0809 13.6438 22.8454 14.3359C22.6099 15.028 22.5131 15.7598 22.5606 16.4893C23.3047 16.497 24.0409 16.3357 24.7137 16.0176C25.3865 15.6995 25.9784 15.2328 26.4447 14.6529Z" fill="white"/>
<path d="M50.7627 32.5675H45.0826L43.7186 36.5952H41.3127L46.6928 21.6936H49.1924L54.5725 36.5952H52.1256L50.7627 32.5675ZM45.6709 30.7089H50.1733L47.9538 24.1721H47.8917L45.6709 30.7089Z" fill="white"/>
<path d="M66.1916 31.1635C66.1916 34.5397 64.3846 36.7088 61.6576 36.7088C60.9669 36.7449 60.2799 36.5858 59.6753 36.2496C59.0708 35.9135 58.5731 35.4139 58.2393 34.808H58.1877V40.1893H55.9576V25.7307H58.1162V27.5377H58.1573C58.5064 26.9347 59.0125 26.4377 59.6216 26.0995C60.2308 25.7613 60.9202 25.5945 61.6166 25.617C64.374 25.617 66.1916 27.7967 66.1916 31.1635ZM63.8994 31.1635C63.8994 28.9639 62.7627 27.5178 61.0283 27.5178C59.3244 27.5178 58.1783 28.9943 58.1783 31.1635C58.1783 33.3526 59.3244 34.8186 61.0283 34.8186C62.7627 34.8186 63.8994 33.383 63.8994 31.1635Z" fill="white"/>
<path d="M78.1494 31.1635C78.1494 34.5397 76.3424 36.7088 73.6154 36.7088C72.9247 36.7449 72.2377 36.5858 71.6331 36.2496C71.0286 35.9135 70.5309 35.4138 70.1971 34.808H70.1455V40.1892H67.9154V25.7307H70.074V27.5377H70.115C70.4642 26.9347 70.9702 26.4377 71.5794 26.0995C72.1885 25.7613 72.878 25.5945 73.5744 25.617C76.3318 25.617 78.1494 27.7967 78.1494 31.1635ZM75.8572 31.1635C75.8572 28.9639 74.7205 27.5178 72.9861 27.5178C71.2822 27.5178 70.1361 28.9943 70.1361 31.1635C70.1361 33.3525 71.2822 34.8186 72.9861 34.8186C74.7205 34.8186 75.8572 33.383 75.8572 31.1635H75.8572Z" fill="white"/>
<path d="M86.0526 32.4432C86.2178 33.9209 87.6534 34.8912 89.6151 34.8912C91.4948 34.8912 92.8471 33.9209 92.8471 32.5884C92.8471 31.4318 92.0315 30.7392 90.1002 30.2646L88.169 29.7994C85.4327 29.1384 84.1623 27.8587 84.1623 25.7822C84.1623 23.2111 86.403 21.4451 89.5846 21.4451C92.7334 21.4451 94.892 23.2111 94.9647 25.7822H92.7135C92.5787 24.2951 91.3494 23.3974 89.5529 23.3974C87.7564 23.3974 86.5271 24.3056 86.5271 25.6275C86.5271 26.681 87.3123 27.3009 89.233 27.7755L90.8748 28.1786C93.9322 28.9017 95.2025 30.1298 95.2025 32.3095C95.2025 35.0974 92.9818 36.8435 89.4498 36.8435C86.1451 36.8435 83.9139 35.1384 83.7697 32.4431L86.0526 32.4432Z" fill="white"/>
<path d="M100.015 23.1597V25.7308H102.081V27.4968H100.015V33.4862C100.015 34.4167 100.429 34.8503 101.337 34.8503C101.583 34.846 101.827 34.8288 102.071 34.7987V36.5542C101.663 36.6305 101.248 36.665 100.832 36.6573C98.6326 36.6573 97.7748 35.8311 97.7748 33.7241V27.4968H96.1951V25.7308H97.7748V23.1597H100.015Z" fill="white"/>
<path d="M103.278 31.1636C103.278 27.7452 105.291 25.5972 108.431 25.5972C111.581 25.5972 113.585 27.7452 113.585 31.1636C113.585 34.5913 111.591 36.73 108.431 36.73C105.271 36.73 103.278 34.5913 103.278 31.1636ZM111.312 31.1636C111.312 28.8187 110.238 27.4347 108.431 27.4347C106.624 27.4347 105.55 28.8292 105.55 31.1636C105.55 33.5179 106.624 34.8913 108.431 34.8913C110.238 34.8913 111.312 33.5179 111.312 31.1636H111.312Z" fill="white"/>
<path d="M115.423 25.7308H117.55V27.58H117.602C117.746 27.0025 118.084 26.4921 118.56 26.1346C119.036 25.7771 119.62 25.5944 120.215 25.6171C120.472 25.6162 120.728 25.6441 120.979 25.7003V27.7863C120.655 27.6871 120.316 27.6416 119.977 27.6515C119.653 27.6384 119.33 27.6955 119.03 27.8189C118.731 27.9424 118.461 28.1293 118.24 28.3668C118.019 28.6042 117.853 28.8867 117.751 29.1947C117.65 29.5027 117.617 29.8289 117.653 30.1511V36.5952H115.423L115.423 25.7308Z" fill="white"/>
<path d="M131.261 33.4042C130.961 35.3765 129.04 36.73 126.583 36.73C123.422 36.73 121.461 34.6124 121.461 31.2151C121.461 27.8073 123.433 25.5972 126.489 25.5972C129.495 25.5972 131.385 27.662 131.385 30.9562V31.7202H123.712V31.855C123.677 32.2548 123.727 32.6576 123.859 33.0366C123.991 33.4156 124.202 33.7622 124.479 34.0532C124.755 34.3443 125.09 34.5732 125.462 34.7248C125.834 34.8763 126.233 34.9471 126.635 34.9323C127.162 34.9817 127.69 34.8596 128.142 34.5843C128.595 34.309 128.946 33.8951 129.144 33.4042L131.261 33.4042ZM123.722 30.1616H129.154C129.174 29.8021 129.12 29.4423 128.994 29.1049C128.868 28.7674 128.674 28.4596 128.424 28.2007C128.174 27.9417 127.873 27.7373 127.54 27.6003C127.207 27.4632 126.849 27.3965 126.489 27.4042C126.126 27.402 125.766 27.4718 125.43 27.6095C125.094 27.7472 124.789 27.9501 124.531 28.2064C124.274 28.4628 124.07 28.7676 123.931 29.1031C123.793 29.4387 123.722 29.7985 123.722 30.1616V30.1616Z" fill="white"/>
<path d="M47.5946 17.6371V14.4959H43.9172V17.6372H42.8051V10.4771H43.9172V13.4841H47.5946V10.4771H48.7008V17.6372L47.5946 17.6371Z" fill="white"/>
<path d="M50.2161 16.1091C50.2161 15.1364 50.9403 14.5757 52.2258 14.496L53.6895 14.4116V13.9452C53.6895 13.3745 53.3122 13.0523 52.5833 13.0523C51.9879 13.0523 51.5754 13.2708 51.4571 13.6528H50.4247C50.5336 12.7247 51.4067 12.1294 52.6325 12.1294C53.9872 12.1294 54.7512 12.8038 54.7512 13.9452V17.6372H53.7247V16.8778H53.6403C53.469 17.1502 53.2285 17.3723 52.9434 17.5213C52.6583 17.6704 52.3387 17.7411 52.0172 17.7262C51.7904 17.7498 51.5611 17.7256 51.3442 17.6552C51.1273 17.5848 50.9276 17.4696 50.7579 17.3173C50.5882 17.1649 50.4523 16.9787 50.359 16.7706C50.2656 16.5625 50.217 16.3372 50.2161 16.1091ZM50.911 10.8292C50.9116 10.6985 50.9508 10.5709 51.0238 10.4624C51.0968 10.354 51.2003 10.2695 51.3212 10.2198C51.4421 10.1701 51.575 10.1572 51.7032 10.1829C51.8314 10.2086 51.9491 10.2717 52.0415 10.3642C52.1339 10.4566 52.1968 10.5744 52.2224 10.7026C52.248 10.8308 52.235 10.9637 52.1852 11.0846C52.1354 11.2054 52.0509 11.3088 51.9423 11.3817C51.8338 11.4546 51.7062 11.4938 51.5754 11.4942C51.4878 11.4954 51.4009 11.479 51.3197 11.4459C51.2385 11.4129 51.1648 11.3639 51.1029 11.302C51.0409 11.24 50.992 11.1662 50.9591 11.085C50.9261 11.0038 50.9098 10.9168 50.911 10.8292V10.8292ZM53.6895 15.6474V15.1956L52.37 15.28C51.6258 15.3298 51.2883 15.5829 51.2883 16.0593C51.2883 16.5456 51.7102 16.8286 52.2903 16.8286C52.4603 16.8458 52.632 16.8287 52.7952 16.7782C52.9584 16.7276 53.1098 16.6448 53.2403 16.5346C53.3709 16.4244 53.4779 16.2891 53.5551 16.1366C53.6322 15.9842 53.678 15.8178 53.6895 15.6474V15.6474ZM53.0297 10.8292C53.0288 10.7417 53.0453 10.6548 53.0781 10.5737C53.111 10.4926 53.1596 10.4188 53.2212 10.3565C53.2828 10.2943 53.3561 10.2449 53.4369 10.2112C53.5177 10.1775 53.6043 10.1602 53.6919 10.1602C53.7794 10.1602 53.8661 10.1775 53.9468 10.2112C54.0276 10.2449 54.1009 10.2943 54.1625 10.3565C54.2241 10.4188 54.2727 10.4926 54.3056 10.5737C54.3384 10.6548 54.3549 10.7417 54.354 10.8292C54.354 11.0048 54.2842 11.1732 54.16 11.2974C54.0359 11.4216 53.8675 11.4913 53.6919 11.4913C53.5163 11.4913 53.3478 11.4216 53.2237 11.2974C53.0995 11.1732 53.0297 11.0048 53.0297 10.8292Z" fill="white"/>
<path d="M56.4211 12.2337H57.4477V13.102H57.5274C57.6559 12.8126 57.8656 12.5666 58.1311 12.3939C58.3967 12.2213 58.7066 12.1294 59.0233 12.1294C59.34 12.1294 59.6499 12.2213 59.9155 12.3939C60.181 12.5666 60.3907 12.8126 60.5192 13.102H60.6036C60.7544 12.7987 60.9898 12.5455 61.2813 12.3729C61.5728 12.2003 61.908 12.1157 62.2465 12.1294C62.4833 12.11 62.7215 12.1434 62.9438 12.2272C63.1662 12.3109 63.3671 12.443 63.5323 12.6138C63.6974 12.7847 63.8225 12.99 63.8987 13.2151C63.9749 13.4402 64.0001 13.6793 63.9727 13.9153V17.6372H62.9063V14.1937C62.9063 13.4642 62.5583 13.1067 61.8587 13.1067C61.708 13.1003 61.5576 13.125 61.4169 13.1795C61.2762 13.234 61.1483 13.3169 61.0412 13.4232C60.9341 13.5294 60.8502 13.6567 60.7946 13.7969C60.7391 13.9372 60.7132 14.0874 60.7185 14.2382V17.6372H59.6709V14.0894C59.6776 13.9534 59.6547 13.8176 59.6039 13.6913C59.5531 13.565 59.4755 13.4513 59.3765 13.3579C59.2775 13.2645 59.1594 13.1937 59.0303 13.1503C58.9013 13.107 58.7644 13.0921 58.6291 13.1067C58.4727 13.1093 58.3185 13.1434 58.1756 13.207C58.0327 13.2706 57.9042 13.3623 57.7976 13.4768C57.691 13.5912 57.6086 13.726 57.5554 13.8731C57.5021 14.0201 57.4791 14.1764 57.4877 14.3325V17.6372H56.4211V12.2337Z" fill="white"/>
<path d="M67.0653 10.8882V12.2581H68.236V13.1564H67.0653V15.9349C67.0653 16.5009 67.2985 16.7487 67.8294 16.7487C67.9653 16.7483 68.101 16.7401 68.236 16.7241V17.6124C68.0445 17.6467 67.8505 17.6649 67.6559 17.6669C66.47 17.6669 65.9977 17.2497 65.9977 16.2079V13.1563H65.1399V12.2581H65.9977V10.8882H67.0653Z" fill="white"/>
<path d="M69.3352 16.1088C69.3352 15.1362 70.0594 14.5754 71.345 14.4957L72.8087 14.4114V13.945C72.8087 13.3743 72.4313 13.052 71.7024 13.052C71.1071 13.052 70.6946 13.2706 70.5762 13.6526H69.5438C69.6528 12.7245 70.5258 12.1292 71.7516 12.1292C73.1063 12.1292 73.8704 12.8036 73.8704 13.945V17.637H72.8438V16.8776H72.7594C72.5882 17.15 72.3477 17.372 72.0625 17.5211C71.7774 17.6701 71.4578 17.7408 71.1364 17.726C70.9095 17.7496 70.6803 17.7254 70.4634 17.6549C70.2464 17.5845 70.0467 17.4694 69.877 17.317C69.7073 17.1647 69.5714 16.9784 69.4781 16.7703C69.3848 16.5622 69.3361 16.3369 69.3352 16.1088ZM72.8087 15.6471V15.1954L71.4891 15.2797C70.745 15.3295 70.4075 15.5827 70.4075 16.059C70.4075 16.5453 70.8293 16.8283 71.4095 16.8283C71.5794 16.8456 71.7511 16.8284 71.9143 16.7779C72.0776 16.7274 72.2289 16.6446 72.3595 16.5343C72.49 16.4241 72.5971 16.2888 72.6742 16.1364C72.7514 15.9839 72.7971 15.8176 72.8087 15.6471Z" fill="white"/>
<path d="M78.3323 10.6357C78.3241 10.4976 78.3575 10.3602 78.4283 10.2413C78.499 10.1224 78.6039 10.0275 78.7292 9.96889C78.8545 9.91026 78.9946 9.89062 79.1312 9.91251C79.2678 9.9344 79.3947 9.9968 79.4955 10.0916C79.5962 10.1865 79.6662 10.3094 79.6963 10.4445C79.7264 10.5795 79.7152 10.7205 79.6642 10.8491C79.6133 10.9778 79.5249 11.0881 79.4104 11.1659C79.296 11.2438 79.1609 11.2854 79.0225 11.2855C78.9341 11.29 78.8457 11.2766 78.7625 11.2461C78.6794 11.2155 78.6033 11.1685 78.5388 11.1078C78.4744 11.0471 78.4228 10.974 78.3873 10.8929C78.3518 10.8118 78.3331 10.7243 78.3323 10.6357ZM78.4905 12.2336H79.5534V17.6371H78.4905V12.2336Z" fill="white"/>
</g>
<defs>
<clipPath id="clip0">
<rect width="143.597" height="48" fill="white"/>
</clipPath>
</defs>
</svg>
