<svg width="144" height="39" viewBox="0 0 144 39" fill="none" xmlns="http://www.w3.org/2000/svg">
<path fill-rule="evenodd" clip-rule="evenodd" d="M2.06452 33.3763C0.929032 33.3763 0 32.4473 0 31.3118C0 30.1763 0.929032 29.2473 2.06452 29.2473C3.2 29.2473 4.12903 30.1763 4.12903 31.3118C4.12903 32.4473 3.2 33.3763 2.06452 33.3763Z" fill="white" fill-opacity="0.95"/>
<path fill-rule="evenodd" clip-rule="evenodd" d="M2.06452 33.3763C0.929032 33.3763 0 32.4473 0 31.3118C0 30.1763 0.929032 29.2473 2.06452 29.2473C3.2 29.2473 4.12903 30.1763 4.12903 31.3118C4.12903 32.4473 3.2 33.3763 2.06452 33.3763Z" fill="url(#paint0_linear)"/>
<path fill-rule="evenodd" clip-rule="evenodd" d="M2.06452 27.527C0.929032 27.527 0 26.5979 0 25.4625C0 24.327 0.929032 23.3979 2.06452 23.3979C3.2 23.3979 4.12903 24.327 4.12903 25.4625C4.12903 26.5979 3.2 27.527 2.06452 27.527Z" fill="white" fill-opacity="0.95"/>
<path fill-rule="evenodd" clip-rule="evenodd" d="M2.06452 27.527C0.929032 27.527 0 26.5979 0 25.4625C0 24.327 0.929032 23.3979 2.06452 23.3979C3.2 23.3979 4.12903 24.327 4.12903 25.4625C4.12903 26.5979 3.2 27.527 2.06452 27.527Z" fill="url(#paint1_linear)"/>
<path fill-rule="evenodd" clip-rule="evenodd" d="M17.2043 27.527C16.0688 27.527 15.1398 26.5979 15.1398 25.4625C15.1398 24.327 16.0688 23.3979 17.2043 23.3979C18.3398 23.3979 19.2688 24.327 19.2688 25.4625C19.2688 26.5979 18.3398 27.527 17.2043 27.527Z" fill="white" fill-opacity="0.95"/>
<path fill-rule="evenodd" clip-rule="evenodd" d="M17.2043 27.527C16.0688 27.527 15.1398 26.5979 15.1398 25.4625C15.1398 24.327 16.0688 23.3979 17.2043 23.3979C18.3398 23.3979 19.2688 24.327 19.2688 25.4625C19.2688 26.5979 18.3398 27.527 17.2043 27.527Z" fill="url(#paint2_linear)"/>
<path fill-rule="evenodd" clip-rule="evenodd" d="M17.2043 21.6774C16.0688 21.6774 15.1398 20.7483 15.1398 19.6129C15.1398 18.4774 16.0688 17.5483 17.2043 17.5483C18.3398 17.5483 19.2688 18.4774 19.2688 19.6129C19.2688 20.7483 18.3398 21.6774 17.2043 21.6774Z" fill="white" fill-opacity="0.95"/>
<path fill-rule="evenodd" clip-rule="evenodd" d="M17.2043 21.6774C16.0688 21.6774 15.1398 20.7483 15.1398 19.6129C15.1398 18.4774 16.0688 17.5483 17.2043 17.5483C18.3398 17.5483 19.2688 18.4774 19.2688 19.6129C19.2688 20.7483 18.3398 21.6774 17.2043 21.6774Z" fill="url(#paint3_linear)"/>
<path fill-rule="evenodd" clip-rule="evenodd" d="M24.4301 27.527C23.2946 27.527 22.3656 26.5979 22.3656 25.4625C22.3656 24.327 23.2946 23.3979 24.4301 23.3979C25.5656 23.3979 26.4946 24.327 26.4946 25.4625C26.4946 26.5979 25.5656 27.527 24.4301 27.527Z" fill="white" fill-opacity="0.95"/>
<path fill-rule="evenodd" clip-rule="evenodd" d="M24.4301 27.527C23.2946 27.527 22.3656 26.5979 22.3656 25.4625C22.3656 24.327 23.2946 23.3979 24.4301 23.3979C25.5656 23.3979 26.4946 24.327 26.4946 25.4625C26.4946 26.5979 25.5656 27.527 24.4301 27.527Z" fill="url(#paint4_linear)"/>
<path fill-rule="evenodd" clip-rule="evenodd" d="M24.4301 21.6774C23.2946 21.6774 22.3656 20.7483 22.3656 19.6129C22.3656 18.4774 23.2946 17.5483 24.4301 17.5483C25.5656 17.5483 26.4946 18.4774 26.4946 19.6129C26.4946 20.7483 25.5656 21.6774 24.4301 21.6774Z" fill="white" fill-opacity="0.95"/>
<path fill-rule="evenodd" clip-rule="evenodd" d="M24.4301 21.6774C23.2946 21.6774 22.3656 20.7483 22.3656 19.6129C22.3656 18.4774 23.2946 17.5483 24.4301 17.5483C25.5656 17.5483 26.4946 18.4774 26.4946 19.6129C26.4946 20.7483 25.5656 21.6774 24.4301 21.6774Z" fill="url(#paint5_linear)"/>
<path fill-rule="evenodd" clip-rule="evenodd" d="M24.4301 15.8278C23.2946 15.8278 22.3656 14.8987 22.3656 13.7632C22.3656 12.6278 23.2946 11.6987 24.4301 11.6987C25.5656 11.6987 26.4946 12.6278 26.4946 13.7632C26.4946 14.8987 25.5656 15.8278 24.4301 15.8278Z" fill="white" fill-opacity="0.95"/>
<path fill-rule="evenodd" clip-rule="evenodd" d="M24.4301 15.8278C23.2946 15.8278 22.3656 14.8987 22.3656 13.7632C22.3656 12.6278 23.2946 11.6987 24.4301 11.6987C25.5656 11.6987 26.4946 12.6278 26.4946 13.7632C26.4946 14.8987 25.5656 15.8278 24.4301 15.8278Z" fill="url(#paint6_linear)"/>
<path fill-rule="evenodd" clip-rule="evenodd" d="M32 27.527C30.8645 27.527 29.9355 26.5979 29.9355 25.4625C29.9355 24.327 30.8645 23.3979 32 23.3979C33.1355 23.3979 34.0645 24.327 34.0645 25.4625C34.0645 26.5979 33.1355 27.527 32 27.527Z" fill="white" fill-opacity="0.95"/>
<path fill-rule="evenodd" clip-rule="evenodd" d="M32 27.527C30.8645 27.527 29.9355 26.5979 29.9355 25.4625C29.9355 24.327 30.8645 23.3979 32 23.3979C33.1355 23.3979 34.0645 24.327 34.0645 25.4625C34.0645 26.5979 33.1355 27.527 32 27.527Z" fill="url(#paint7_linear)"/>
<path fill-rule="evenodd" clip-rule="evenodd" d="M32 21.6774C30.8645 21.6774 29.9355 20.7483 29.9355 19.6129C29.9355 18.4774 30.8645 17.5483 32 17.5483C33.1355 17.5483 34.0645 18.4774 34.0645 19.6129C34.0645 20.7483 33.1355 21.6774 32 21.6774Z" fill="white" fill-opacity="0.95"/>
<path fill-rule="evenodd" clip-rule="evenodd" d="M32 21.6774C30.8645 21.6774 29.9355 20.7483 29.9355 19.6129C29.9355 18.4774 30.8645 17.5483 32 17.5483C33.1355 17.5483 34.0645 18.4774 34.0645 19.6129C34.0645 20.7483 33.1355 21.6774 32 21.6774Z" fill="url(#paint8_linear)"/>
<path fill-rule="evenodd" clip-rule="evenodd" d="M39.5699 27.527C38.4344 27.527 37.5054 26.5979 37.5054 25.4625C37.5054 24.327 38.4344 23.3979 39.5699 23.3979C40.7054 23.3979 41.6344 24.327 41.6344 25.4625C41.6344 26.5979 40.7054 27.527 39.5699 27.527Z" fill="white" fill-opacity="0.95"/>
<path fill-rule="evenodd" clip-rule="evenodd" d="M39.5699 27.527C38.4344 27.527 37.5054 26.5979 37.5054 25.4625C37.5054 24.327 38.4344 23.3979 39.5699 23.3979C40.7054 23.3979 41.6344 24.327 41.6344 25.4625C41.6344 26.5979 40.7054 27.527 39.5699 27.527Z" fill="url(#paint9_linear)"/>
<path fill-rule="evenodd" clip-rule="evenodd" d="M54.3656 27.527C53.2301 27.527 52.3011 26.5979 52.3011 25.4625C52.3011 24.327 53.2301 23.3979 54.3656 23.3979C55.5011 23.3979 56.4301 24.327 56.4301 25.4625C56.4301 26.5979 55.5011 27.527 54.3656 27.527Z" fill="white" fill-opacity="0.95"/>
<path fill-rule="evenodd" clip-rule="evenodd" d="M54.3656 27.527C53.2301 27.527 52.3011 26.5979 52.3011 25.4625C52.3011 24.327 53.2301 23.3979 54.3656 23.3979C55.5011 23.3979 56.4301 24.327 56.4301 25.4625C56.4301 26.5979 55.5011 27.527 54.3656 27.527Z" fill="url(#paint10_linear)"/>
<path fill-rule="evenodd" clip-rule="evenodd" d="M61.9355 27.527C60.8 27.527 59.8709 26.5979 59.8709 25.4625C59.8709 24.327 60.8 23.3979 61.9355 23.3979C63.0709 23.3979 64 24.327 64 25.4625C64 26.5979 63.0709 27.527 61.9355 27.527Z" fill="white" fill-opacity="0.95"/>
<path fill-rule="evenodd" clip-rule="evenodd" d="M61.9355 27.527C60.8 27.527 59.8709 26.5979 59.8709 25.4625C59.8709 24.327 60.8 23.3979 61.9355 23.3979C63.0709 23.3979 64 24.327 64 25.4625C64 26.5979 63.0709 27.527 61.9355 27.527Z" fill="url(#paint11_linear)"/>
<path fill-rule="evenodd" clip-rule="evenodd" d="M61.9355 21.6774C60.8 21.6774 59.8709 20.7483 59.8709 19.6129C59.8709 18.4774 60.8 17.5483 61.9355 17.5483C63.0709 17.5483 64 18.4774 64 19.6129C64 20.7483 63.0709 21.6774 61.9355 21.6774Z" fill="white" fill-opacity="0.95"/>
<path fill-rule="evenodd" clip-rule="evenodd" d="M61.9355 21.6774C60.8 21.6774 59.8709 20.7483 59.8709 19.6129C59.8709 18.4774 60.8 17.5483 61.9355 17.5483C63.0709 17.5483 64 18.4774 64 19.6129C64 20.7483 63.0709 21.6774 61.9355 21.6774Z" fill="url(#paint12_linear)"/>
<path fill-rule="evenodd" clip-rule="evenodd" d="M39.5699 21.6774C38.4344 21.6774 37.5054 20.7483 37.5054 19.6129C37.5054 18.4774 38.4344 17.5483 39.5699 17.5483C40.7054 17.5483 41.6344 18.4774 41.6344 19.6129C41.6344 20.7483 40.7054 21.6774 39.5699 21.6774Z" fill="white" fill-opacity="0.95"/>
<path fill-rule="evenodd" clip-rule="evenodd" d="M39.5699 21.6774C38.4344 21.6774 37.5054 20.7483 37.5054 19.6129C37.5054 18.4774 38.4344 17.5483 39.5699 17.5483C40.7054 17.5483 41.6344 18.4774 41.6344 19.6129C41.6344 20.7483 40.7054 21.6774 39.5699 21.6774Z" fill="url(#paint13_linear)"/>
<path fill-rule="evenodd" clip-rule="evenodd" d="M32 15.8278C30.8645 15.8278 29.9355 14.8987 29.9355 13.7632C29.9355 12.6278 30.8645 11.6987 32 11.6987C33.1355 11.6987 34.0645 12.6278 34.0645 13.7632C34.0645 14.8987 33.1355 15.8278 32 15.8278Z" fill="white" fill-opacity="0.95"/>
<path fill-rule="evenodd" clip-rule="evenodd" d="M32 15.8278C30.8645 15.8278 29.9355 14.8987 29.9355 13.7632C29.9355 12.6278 30.8645 11.6987 32 11.6987C33.1355 11.6987 34.0645 12.6278 34.0645 13.7632C34.0645 14.8987 33.1355 15.8278 32 15.8278Z" fill="url(#paint14_linear)"/>
<path fill-rule="evenodd" clip-rule="evenodd" d="M32 9.9784C30.8645 9.9784 29.9355 9.04937 29.9355 7.91388C29.9355 6.7784 30.8645 5.84937 32 5.84937C33.1355 5.84937 34.0645 6.7784 34.0645 7.91388C34.0645 9.04937 33.1355 9.9784 32 9.9784Z" fill="white" fill-opacity="0.95"/>
<path fill-rule="evenodd" clip-rule="evenodd" d="M32 9.9784C30.8645 9.9784 29.9355 9.04937 29.9355 7.91388C29.9355 6.7784 30.8645 5.84937 32 5.84937C33.1355 5.84937 34.0645 6.7784 34.0645 7.91388C34.0645 9.04937 33.1355 9.9784 32 9.9784Z" fill="url(#paint15_linear)"/>
<path fill-rule="evenodd" clip-rule="evenodd" d="M32 4.12903C30.8645 4.12903 29.9355 3.2 29.9355 2.06452C29.9355 0.929032 30.8645 0 32 0C33.1355 0 34.0645 0.929032 34.0645 2.06452C34.0645 3.2 33.1355 4.12903 32 4.12903Z" fill="white" fill-opacity="0.95"/>
<path fill-rule="evenodd" clip-rule="evenodd" d="M32 4.12903C30.8645 4.12903 29.9355 3.2 29.9355 2.06452C29.9355 0.929032 30.8645 0 32 0C33.1355 0 34.0645 0.929032 34.0645 2.06452C34.0645 3.2 33.1355 4.12903 32 4.12903Z" fill="url(#paint16_linear)"/>
<path fill-rule="evenodd" clip-rule="evenodd" d="M9.6344 33.3763C8.49892 33.3763 7.56989 32.4473 7.56989 31.3118C7.56989 30.1763 8.49892 29.2473 9.6344 29.2473C10.7699 29.2473 11.6989 30.1763 11.6989 31.3118C11.6989 32.4473 10.7699 33.3763 9.6344 33.3763Z" fill="white" fill-opacity="0.95"/>
<path fill-rule="evenodd" clip-rule="evenodd" d="M9.6344 33.3763C8.49892 33.3763 7.56989 32.4473 7.56989 31.3118C7.56989 30.1763 8.49892 29.2473 9.6344 29.2473C10.7699 29.2473 11.6989 30.1763 11.6989 31.3118C11.6989 32.4473 10.7699 33.3763 9.6344 33.3763Z" fill="url(#paint17_linear)"/>
<path fill-rule="evenodd" clip-rule="evenodd" d="M17.2043 33.3763C16.0688 33.3763 15.1398 32.4473 15.1398 31.3118C15.1398 30.1763 16.0688 29.2473 17.2043 29.2473C18.3398 29.2473 19.2688 30.1763 19.2688 31.3118C19.2688 32.4473 18.3398 33.3763 17.2043 33.3763Z" fill="white" fill-opacity="0.95"/>
<path fill-rule="evenodd" clip-rule="evenodd" d="M17.2043 33.3763C16.0688 33.3763 15.1398 32.4473 15.1398 31.3118C15.1398 30.1763 16.0688 29.2473 17.2043 29.2473C18.3398 29.2473 19.2688 30.1763 19.2688 31.3118C19.2688 32.4473 18.3398 33.3763 17.2043 33.3763Z" fill="url(#paint18_linear)"/>
<path fill-rule="evenodd" clip-rule="evenodd" d="M24.4301 33.3763C23.2946 33.3763 22.3656 32.4473 22.3656 31.3118C22.3656 30.1763 23.2946 29.2473 24.4301 29.2473C25.5656 29.2473 26.4946 30.1763 26.4946 31.3118C26.4946 32.4473 25.5656 33.3763 24.4301 33.3763Z" fill="white" fill-opacity="0.95"/>
<path fill-rule="evenodd" clip-rule="evenodd" d="M24.4301 33.3763C23.2946 33.3763 22.3656 32.4473 22.3656 31.3118C22.3656 30.1763 23.2946 29.2473 24.4301 29.2473C25.5656 29.2473 26.4946 30.1763 26.4946 31.3118C26.4946 32.4473 25.5656 33.3763 24.4301 33.3763Z" fill="url(#paint19_linear)"/>
<path fill-rule="evenodd" clip-rule="evenodd" d="M32 33.3763C30.8645 33.3763 29.9355 32.4473 29.9355 31.3118C29.9355 30.1763 30.8645 29.2473 32 29.2473C33.1355 29.2473 34.0645 30.1763 34.0645 31.3118C34.0645 32.4473 33.1355 33.3763 32 33.3763Z" fill="white" fill-opacity="0.95"/>
<path fill-rule="evenodd" clip-rule="evenodd" d="M32 33.3763C30.8645 33.3763 29.9355 32.4473 29.9355 31.3118C29.9355 30.1763 30.8645 29.2473 32 29.2473C33.1355 29.2473 34.0645 30.1763 34.0645 31.3118C34.0645 32.4473 33.1355 33.3763 32 33.3763Z" fill="url(#paint20_linear)"/>
<path fill-rule="evenodd" clip-rule="evenodd" d="M39.5699 33.3763C38.4344 33.3763 37.5054 32.4473 37.5054 31.3118C37.5054 30.1763 38.4344 29.2473 39.5699 29.2473C40.7054 29.2473 41.6344 30.1763 41.6344 31.3118C41.6344 32.4473 40.7054 33.3763 39.5699 33.3763Z" fill="white" fill-opacity="0.95"/>
<path fill-rule="evenodd" clip-rule="evenodd" d="M39.5699 33.3763C38.4344 33.3763 37.5054 32.4473 37.5054 31.3118C37.5054 30.1763 38.4344 29.2473 39.5699 29.2473C40.7054 29.2473 41.6344 30.1763 41.6344 31.3118C41.6344 32.4473 40.7054 33.3763 39.5699 33.3763Z" fill="url(#paint21_linear)"/>
<path fill-rule="evenodd" clip-rule="evenodd" d="M46.7957 33.3763C45.6602 33.3763 44.7312 32.4473 44.7312 31.3118C44.7312 30.1763 45.6602 29.2473 46.7957 29.2473C47.9312 29.2473 48.8602 30.1763 48.8602 31.3118C48.8602 32.4473 47.9312 33.3763 46.7957 33.3763Z" fill="white" fill-opacity="0.95"/>
<path fill-rule="evenodd" clip-rule="evenodd" d="M46.7957 33.3763C45.6602 33.3763 44.7312 32.4473 44.7312 31.3118C44.7312 30.1763 45.6602 29.2473 46.7957 29.2473C47.9312 29.2473 48.8602 30.1763 48.8602 31.3118C48.8602 32.4473 47.9312 33.3763 46.7957 33.3763Z" fill="url(#paint22_linear)"/>
<path fill-rule="evenodd" clip-rule="evenodd" d="M54.3656 33.3763C53.2301 33.3763 52.3011 32.4473 52.3011 31.3118C52.3011 30.1763 53.2301 29.2473 54.3656 29.2473C55.5011 29.2473 56.4301 30.1763 56.4301 31.3118C56.4301 32.4473 55.5011 33.3763 54.3656 33.3763Z" fill="white" fill-opacity="0.95"/>
<path fill-rule="evenodd" clip-rule="evenodd" d="M54.3656 33.3763C53.2301 33.3763 52.3011 32.4473 52.3011 31.3118C52.3011 30.1763 53.2301 29.2473 54.3656 29.2473C55.5011 29.2473 56.4301 30.1763 56.4301 31.3118C56.4301 32.4473 55.5011 33.3763 54.3656 33.3763Z" fill="url(#paint23_linear)"/>
<path fill-rule="evenodd" clip-rule="evenodd" d="M61.9355 33.3763C60.8 33.3763 59.8709 32.4473 59.8709 31.3118C59.8709 30.1763 60.8 29.2473 61.9355 29.2473C63.0709 29.2473 64 30.1763 64 31.3118C64 32.4473 63.0709 33.3763 61.9355 33.3763Z" fill="white" fill-opacity="0.95"/>
<path fill-rule="evenodd" clip-rule="evenodd" d="M61.9355 33.3763C60.8 33.3763 59.8709 32.4473 59.8709 31.3118C59.8709 30.1763 60.8 29.2473 61.9355 29.2473C63.0709 29.2473 64 30.1763 64 31.3118C64 32.4473 63.0709 33.3763 61.9355 33.3763Z" fill="url(#paint24_linear)"/>
<path d="M82.4443 32.9551L77.9908 26.1278L82.1052 21.3126H78.9177L74.7806 26.4896L74.7354 26.4669V16H72V32.9551H74.7354V29.9258L76.1597 28.2755L79.0985 32.9551H82.4443Z" fill="#0AA748"/>
<path d="M86.6738 21.3126H84.1644V32.9551H86.9224V25.1105C87.4876 24.1158 88.324 23.5507 89.3187 23.5507C89.7483 23.5507 90.0874 23.6185 90.4265 23.7993L91.0369 21.2448C90.6073 21.1091 90.1778 21.0413 89.6352 21.0413C88.4371 21.0413 87.5102 21.8326 86.8094 22.9629L86.6738 21.3126Z" fill="#0AA748"/>
<path d="M102.842 27.8234C102.91 27.3938 102.955 26.8739 102.955 26.4443C102.955 23.3246 100.626 21.0413 97.4614 21.0413C94.1608 21.0413 91.6063 23.7089 91.6063 27.213C91.6063 30.6718 93.867 33.2264 97.4614 33.2264C99.8804 33.2264 101.395 32.3221 102.684 30.4231L100.83 29.1798C100.106 30.4005 99.1343 30.9883 97.6197 30.9883C95.7207 30.9883 94.5452 29.5641 94.3643 27.8234H102.842ZM100.152 25.8566H94.5226C94.8843 24.3645 95.8564 23.2342 97.5293 23.2342C98.9761 23.2342 100.084 24.3419 100.152 25.8566Z" fill="#0AA748"/>
<path d="M116.5 16H113.742V22.5108C112.838 21.5161 111.459 21.0413 110.261 21.0413C106.915 21.0413 104.632 23.9124 104.632 27.0999C104.632 30.491 107.005 33.2264 110.216 33.2264C111.504 33.2264 113.019 32.729 113.855 31.4631L113.991 32.9551H116.5V16ZM113.742 29.0215C113.087 30.2875 111.821 30.8301 110.736 30.8301C108.678 30.8301 107.412 29.0667 107.412 27.1678C107.412 25.3818 108.497 23.4376 110.781 23.4376C111.843 23.4376 112.951 23.8898 113.742 24.9071V29.0215Z" fill="#0AA748"/>
<path d="M130.894 16H128.136V22.5108C127.232 21.5161 125.853 21.0413 124.655 21.0413C121.309 21.0413 119.026 23.9124 119.026 27.0999C119.026 30.491 121.4 33.2264 124.61 33.2264C125.898 33.2264 127.413 32.729 128.249 31.4631L128.385 32.9551H130.894V16ZM128.136 29.0215C127.481 30.2875 126.215 30.8301 125.13 30.8301C123.072 30.8301 121.806 29.0667 121.806 27.1678C121.806 25.3818 122.892 23.4376 125.175 23.4376C126.237 23.4376 127.345 23.8898 128.136 24.9071V29.0215Z" fill="#0AA748"/>
<path d="M132.674 21.3126L136.856 32.4125L135.002 37.3182L137.444 38.2451L144 21.3126H141.016L138.348 29.0215H138.303L135.681 21.3126H132.674Z" fill="#0AA748"/>
<defs>
<linearGradient id="paint0_linear" x1="4.12903" y1="29.2473" x2="0" y2="33.3763" gradientUnits="userSpaceOnUse">
<stop stop-color="#06A344"/>
<stop offset="1" stop-color="#29C667"/>
</linearGradient>
<linearGradient id="paint1_linear" x1="4.12903" y1="23.3979" x2="0" y2="27.527" gradientUnits="userSpaceOnUse">
<stop stop-color="#06A344"/>
<stop offset="1" stop-color="#29C667"/>
</linearGradient>
<linearGradient id="paint2_linear" x1="19.2688" y1="23.3979" x2="15.1398" y2="27.527" gradientUnits="userSpaceOnUse">
<stop stop-color="#06A344"/>
<stop offset="1" stop-color="#29C667"/>
</linearGradient>
<linearGradient id="paint3_linear" x1="19.2688" y1="17.5483" x2="15.1398" y2="21.6774" gradientUnits="userSpaceOnUse">
<stop stop-color="#06A344"/>
<stop offset="1" stop-color="#29C667"/>
</linearGradient>
<linearGradient id="paint4_linear" x1="26.4946" y1="23.3979" x2="22.3656" y2="27.527" gradientUnits="userSpaceOnUse">
<stop stop-color="#06A344"/>
<stop offset="1" stop-color="#29C667"/>
</linearGradient>
<linearGradient id="paint5_linear" x1="26.4946" y1="17.5483" x2="22.3656" y2="21.6774" gradientUnits="userSpaceOnUse">
<stop stop-color="#06A344"/>
<stop offset="1" stop-color="#29C667"/>
</linearGradient>
<linearGradient id="paint6_linear" x1="26.4946" y1="11.6987" x2="22.3656" y2="15.8278" gradientUnits="userSpaceOnUse">
<stop stop-color="#06A344"/>
<stop offset="1" stop-color="#29C667"/>
</linearGradient>
<linearGradient id="paint7_linear" x1="34.0645" y1="23.3979" x2="29.9355" y2="27.527" gradientUnits="userSpaceOnUse">
<stop stop-color="#06A344"/>
<stop offset="1" stop-color="#29C667"/>
</linearGradient>
<linearGradient id="paint8_linear" x1="34.0645" y1="17.5483" x2="29.9355" y2="21.6774" gradientUnits="userSpaceOnUse">
<stop stop-color="#06A344"/>
<stop offset="1" stop-color="#29C667"/>
</linearGradient>
<linearGradient id="paint9_linear" x1="41.6344" y1="23.3979" x2="37.5054" y2="27.527" gradientUnits="userSpaceOnUse">
<stop stop-color="#06A344"/>
<stop offset="1" stop-color="#29C667"/>
</linearGradient>
<linearGradient id="paint10_linear" x1="56.4301" y1="23.3979" x2="52.3011" y2="27.527" gradientUnits="userSpaceOnUse">
<stop stop-color="#06A344"/>
<stop offset="1" stop-color="#29C667"/>
</linearGradient>
<linearGradient id="paint11_linear" x1="64" y1="23.3979" x2="59.8709" y2="27.527" gradientUnits="userSpaceOnUse">
<stop stop-color="#06A344"/>
<stop offset="1" stop-color="#29C667"/>
</linearGradient>
<linearGradient id="paint12_linear" x1="64" y1="17.5483" x2="59.8709" y2="21.6774" gradientUnits="userSpaceOnUse">
<stop stop-color="#06A344"/>
<stop offset="1" stop-color="#29C667"/>
</linearGradient>
<linearGradient id="paint13_linear" x1="41.6344" y1="17.5483" x2="37.5054" y2="21.6774" gradientUnits="userSpaceOnUse">
<stop stop-color="#06A344"/>
<stop offset="1" stop-color="#29C667"/>
</linearGradient>
<linearGradient id="paint14_linear" x1="34.0645" y1="11.6987" x2="29.9355" y2="15.8278" gradientUnits="userSpaceOnUse">
<stop stop-color="#06A344"/>
<stop offset="1" stop-color="#29C667"/>
</linearGradient>
<linearGradient id="paint15_linear" x1="34.0645" y1="5.84937" x2="29.9355" y2="9.9784" gradientUnits="userSpaceOnUse">
<stop stop-color="#06A344"/>
<stop offset="1" stop-color="#29C667"/>
</linearGradient>
<linearGradient id="paint16_linear" x1="34.0645" y1="0" x2="29.9355" y2="4.12903" gradientUnits="userSpaceOnUse">
<stop stop-color="#06A344"/>
<stop offset="1" stop-color="#29C667"/>
</linearGradient>
<linearGradient id="paint17_linear" x1="11.6989" y1="29.2473" x2="7.56989" y2="33.3763" gradientUnits="userSpaceOnUse">
<stop stop-color="#06A344"/>
<stop offset="1" stop-color="#29C667"/>
</linearGradient>
<linearGradient id="paint18_linear" x1="19.2688" y1="29.2473" x2="15.1398" y2="33.3763" gradientUnits="userSpaceOnUse">
<stop stop-color="#06A344"/>
<stop offset="1" stop-color="#29C667"/>
</linearGradient>
<linearGradient id="paint19_linear" x1="26.4946" y1="29.2473" x2="22.3656" y2="33.3763" gradientUnits="userSpaceOnUse">
<stop stop-color="#06A344"/>
<stop offset="1" stop-color="#29C667"/>
</linearGradient>
<linearGradient id="paint20_linear" x1="34.0645" y1="29.2473" x2="29.9355" y2="33.3763" gradientUnits="userSpaceOnUse">
<stop stop-color="#06A344"/>
<stop offset="1" stop-color="#29C667"/>
</linearGradient>
<linearGradient id="paint21_linear" x1="41.6344" y1="29.2473" x2="37.5054" y2="33.3763" gradientUnits="userSpaceOnUse">
<stop stop-color="#06A344"/>
<stop offset="1" stop-color="#29C667"/>
</linearGradient>
<linearGradient id="paint22_linear" x1="48.8602" y1="29.2473" x2="44.7312" y2="33.3763" gradientUnits="userSpaceOnUse">
<stop stop-color="#06A344"/>
<stop offset="1" stop-color="#29C667"/>
</linearGradient>
<linearGradient id="paint23_linear" x1="56.4301" y1="29.2473" x2="52.3011" y2="33.3763" gradientUnits="userSpaceOnUse">
<stop stop-color="#06A344"/>
<stop offset="1" stop-color="#29C667"/>
</linearGradient>
<linearGradient id="paint24_linear" x1="64" y1="29.2473" x2="59.8709" y2="33.3763" gradientUnits="userSpaceOnUse">
<stop stop-color="#06A344"/>
<stop offset="1" stop-color="#29C667"/>
</linearGradient>
</defs>
</svg>
