<svg width="48" height="48" viewBox="0 0 48 48" fill="none" xmlns="http://www.w3.org/2000/svg">
<path d="M24 3.50571C21.7194 2.18903 19.1325 1.49593 16.4991 1.49609C13.8657 1.49625 11.2788 2.18966 8.99843 3.50662C6.71804 4.82357 4.82453 6.71765 3.50826 8.99845C2.192 11.2792 1.49937 13.8664 1.5 16.4997" stroke="#003E19" stroke-width="2" stroke-linecap="round" stroke-linejoin="round"/>
<path d="M31.5 16.5C31.5026 14.4353 31.0777 12.3924 30.252 10.5" stroke="#003E19" stroke-width="2" stroke-linecap="round" stroke-linejoin="round"/>
<path d="M16.5 46.5002C17.5075 46.5004 18.5125 46.3999 19.5 46.2002" stroke="#003E19" stroke-width="2" stroke-linecap="round" stroke-linejoin="round"/>
<path d="M1.5 25.5V31.5C1.49917 34.4194 2.35027 37.2756 3.94893 39.7183C5.54759 42.1611 7.82434 44.0842 10.5 45.252" stroke="#003E19" stroke-width="2" stroke-linecap="round" stroke-linejoin="round"/>
<path d="M25.5 25.4998V16.4998C25.5003 14.9198 25.0847 13.3676 24.2949 11.9992C23.5051 10.6308 22.369 9.49439 21.0008 8.70426C19.6325 7.91414 18.0804 7.49812 16.5004 7.49805C14.9205 7.49797 13.3683 7.91383 12 8.70382" stroke="#003E19" stroke-width="2" stroke-linecap="round" stroke-linejoin="round"/>
<path d="M7.5 16.5V31.5C7.49957 32.9401 7.84469 34.3592 8.5064 35.6382C9.1681 36.9172 10.1271 38.0188 11.3027 38.8504C12.4784 39.682 13.8365 40.2193 15.2629 40.4173C16.6892 40.6152 18.1423 40.468 19.5 39.988" stroke="#003E19" stroke-width="2" stroke-linecap="round" stroke-linejoin="round"/>
<path d="M13.5 31.5C13.5 32.2956 13.8161 33.0587 14.3787 33.6213C14.9413 34.1839 15.7044 34.5 16.5 34.5C17.2956 34.5 18.0587 34.1839 18.6213 33.6213C19.1839 33.0587 19.5 32.2956 19.5 31.5V16.5C19.5 15.7044 19.1839 14.9413 18.6213 14.3787C18.0587 13.8161 17.2956 13.5 16.5 13.5C15.7044 13.5 14.9413 13.8161 14.3787 14.3787C13.8161 14.9413 13.5 15.7044 13.5 16.5V22.5" stroke="#003E19" stroke-width="2" stroke-linecap="round" stroke-linejoin="round"/>
<path d="M43.5 31.5H31.5C29.8431 31.5 28.5 32.8431 28.5 34.5V43.5C28.5 45.1569 29.8431 46.5 31.5 46.5H43.5C45.1569 46.5 46.5 45.1569 46.5 43.5V34.5C46.5 32.8431 45.1569 31.5 43.5 31.5Z" stroke="#003E19" stroke-width="2" stroke-linecap="round" stroke-linejoin="round"/>
<path d="M37.5 22.5C35.9087 22.5 34.3826 23.1321 33.2574 24.2574C32.1321 25.3826 31.5 26.9087 31.5 28.5V31.5H43.5V28.5C43.5 26.9087 42.8679 25.3826 41.7426 24.2574C40.6174 23.1321 39.0913 22.5 37.5 22.5Z" stroke="#003E19" stroke-width="2" stroke-linecap="round" stroke-linejoin="round"/>
<path d="M37.5 38.3076C37.6483 38.3076 37.7933 38.3516 37.9167 38.434C38.04 38.5164 38.1361 38.6336 38.1929 38.7706C38.2497 38.9077 38.2645 39.0585 38.2356 39.2039C38.2066 39.3494 38.1352 39.4831 38.0303 39.5879C37.9254 39.6928 37.7918 39.7643 37.6463 39.7932C37.5008 39.8221 37.35 39.8073 37.213 39.7505C37.0759 39.6938 36.9588 39.5976 36.8764 39.4743C36.794 39.351 36.75 39.206 36.75 39.0576C36.75 38.8587 36.829 38.6679 36.9697 38.5273C37.1103 38.3866 37.3011 38.3076 37.5 38.3076" stroke="#003E19" stroke-width="2" stroke-linecap="round" stroke-linejoin="round"/>
</svg>
